<?xml version="1.0" encoding="utf-8"?>
<!-- Generator: Adobe Illustrator 25.1.0, SVG Export Plug-In . SVG Version: 6.00 Build 0)  -->
<svg version="1.1" id="Layer_1" xmlns="http://www.w3.org/2000/svg" xmlns:xlink="http://www.w3.org/1999/xlink" x="0px" y="0px"
	 viewBox="0 0 335.06 85.71" style="enable-background:new 0 0 335.06 85.71;" xml:space="preserve">
<style type="text/css">
	.st0{fill:#6D6D6D;}
	.st1{fill:none;stroke:#6D6D6D;stroke-miterlimit:10;}
</style>
<g>
	<g>
		<path class="st0" d="M326.69,56.96l-23.64,21.85H16.74v1.06H303.5l24.31-22.47v-42.8h-1.11V56.96z M28.52,5.76L7.26,27.25v52.62
			h5.02v-1.06h-3.9V27.68L29,6.82h297.69v3.56h1.11V5.76H28.52z"/>
	</g>
	<rect x="7.82" y="70.34" class="st0" width="5.01" height="9.53"/>
	
		<rect x="320.18" y="3.28" transform="matrix(-1.836970e-16 1 -1 -1.836970e-16 331.0867 -314.0429)" class="st0" width="4.76" height="10.48"/>
	<polygon class="st0" points="327.62,59.69 324.47,56.7 303.13,76.96 306.28,79.96 	"/>
	<polyline class="st1" points="16.74,72.73 299.21,72.73 319.78,53.2 319.78,14.61 	"/>
</g>
</svg>
